<?xml version="1.0" encoding="UTF-8"?>
<svg version="1.1" xmlns="http://www.w3.org/2000/svg" width="651" height="383">
<path d="M0 0 C1.22155633 -0.00525911 1.22155633 -0.00525911 2.46779057 -0.01062447 C5.22010761 -0.01999193 7.97221552 -0.01500146 10.72454166 -0.01015663 C12.7083108 -0.0138902 14.69207847 -0.01849053 16.67584378 -0.02388728 C22.14551702 -0.0361689 27.61512934 -0.03585076 33.08481324 -0.03349853 C38.97651727 -0.03309166 44.86820142 -0.04411693 50.75989628 -0.05361366 C62.30928936 -0.0702525 73.8586636 -0.07575036 85.40806752 -0.07683842 C94.79154708 -0.07775666 104.17502002 -0.08186892 113.55849743 -0.08823967 C116.25716831 -0.09003469 118.95583919 -0.09181431 121.65451008 -0.09358943 C122.32535951 -0.09403152 122.99620894 -0.09447362 123.68738715 -0.09492911 C142.56260978 -0.1072412 161.43783012 -0.11512986 180.31305695 -0.11424255 C181.02501381 -0.1142114 181.73697067 -0.11418024 182.47050199 -0.11414814 C186.07919786 -0.11398192 189.68789373 -0.11378383 193.29658961 -0.11357872 C194.01332178 -0.11353883 194.73005395 -0.11349894 195.46850527 -0.11345784 C196.91791259 -0.11337697 198.3673199 -0.11329337 199.81672721 -0.11320706 C222.37375741 -0.11198119 244.93072751 -0.12699981 267.48774052 -0.15435219 C292.81546027 -0.18505146 318.14314054 -0.20228601 343.47088009 -0.20042574 C346.16986533 -0.20027648 348.86885057 -0.20017907 351.56783581 -0.20011711 C352.56471509 -0.20008215 352.56471509 -0.20008215 353.58173335 -0.20004648 C363.62771302 -0.19998867 373.67364552 -0.21064404 383.71961117 -0.22678185 C395.14053028 -0.24494293 406.5613509 -0.24938282 417.98227816 -0.235763 C423.81360582 -0.22920786 429.64474423 -0.22920754 435.47605419 -0.2464695 C440.80856239 -0.26209311 446.1407296 -0.25944712 451.47322894 -0.24190123 C453.4079232 -0.23880758 455.34264225 -0.24255166 457.27730732 -0.25362138 C459.89672721 -0.26762288 462.51493105 -0.25725152 465.13430786 -0.24050903 C465.89463242 -0.25044539 466.65495698 -0.26038175 467.43832168 -0.27061921 C470.90743561 -0.22337471 472.79246224 0.00157671 475.59465367 2.12382925 C477.1300745 4.25726891 477.1300745 4.25726891 477.6925745 6.89008141 C476.86348306 11.85311488 474.56143781 15.76895745 472.1300745 20.13226891 C471.65312138 21.01140953 471.17616825 21.89055016 470.684762 22.79633141 C469.51086026 24.9563106 468.32584127 27.10934105 467.1300745 29.25726891 C466.4700745 29.25726891 465.8100745 29.25726891 465.1300745 29.25726891 C464.98312138 29.79094078 464.83616825 30.32461266 464.684762 30.87445641 C463.01934213 36.40671323 460.66825742 40.96449174 457.606637 45.85101891 C455.92598287 48.58986268 454.51619811 51.39871718 453.11054325 54.28461266 C451.25503933 58.01779783 449.18448589 61.63088047 447.1300745 65.25726891 C446.50745731 66.35683922 445.88484013 67.45640953 445.24335575 68.58930016 C443.21971666 72.15348147 441.17577465 75.70570614 439.1300745 79.25726891 C438.624762 80.14801109 438.1194495 81.03875328 437.5988245 81.95648766 C432.45477991 90.82996457 426.49512907 99.10065928 419.1300745 106.25726891 C418.41464481 106.99590172 417.69921513 107.73453453 416.96210575 108.49555016 C415.96243778 109.52228844 415.96243778 109.52228844 414.9425745 110.56976891 C413.93130497 111.61584312 413.93130497 111.61584312 412.89960575 112.68305016 C411.1300745 114.25726891 411.1300745 114.25726891 409.1300745 114.25726891 C408.9031995 114.85539391 408.6763245 115.45351891 408.4425745 116.06976891 C406.73978138 118.90775744 405.01635117 119.59919508 402.1300745 121.25726891 C400.80871654 122.30873247 399.49735914 123.37280829 398.1925745 124.44476891 C389.85631861 131.00558261 380.33981493 135.94930313 370.6300745 140.15180016 C368.84280507 140.94210836 367.08705182 141.80527361 365.35708767 142.71419775 C346.49077381 151.73556306 323.63366009 152.27260622 303.22406864 152.09955406 C300.48224267 152.09860442 297.74047462 152.10821694 294.99866581 152.11725426 C288.41481621 152.13273175 281.83160528 152.11175054 275.24784804 152.07726569 C267.56021709 152.03846105 259.87270831 152.03768116 252.1849963 152.03799526 C238.47311402 152.03731317 224.76152216 152.00349515 211.04975224 151.95014 C197.77041498 151.89850012 184.49130062 151.87036358 171.21186161 151.86810875 C170.39032937 151.86796589 169.56879713 151.86782304 168.72236998 151.86767586 C167.9021883 151.86753724 167.08200663 151.86739862 166.23697096 151.86725581 C164.58527314 151.8669654 162.93357533 151.86666291 161.28187752 151.86634827 C160.4671446 151.86619322 159.65241169 151.86603818 158.81298989 151.86587844 C146.10120856 151.86244017 133.38946036 151.83692045 120.67771171 151.80949218 C116.0853359 151.79990187 111.4929704 151.79376214 106.90058614 151.79019161 C99.6329162 151.78452572 92.36540933 151.76942516 85.09781647 151.73436542 C81.78132782 151.71855424 78.46503708 151.70895401 75.14850521 151.70909309 C71.55275401 151.70832642 67.95756172 151.68913321 64.36190128 151.66513634 C62.79481964 151.67108187 62.79481964 151.67108187 61.19607979 151.67714751 C55.37201489 151.61519195 51.30568383 150.9611978 46.1300745 148.25726891 C45.34761356 147.91566734 44.56515263 147.57406578 43.75898075 147.22211266 C32.71891771 141.73338566 28.15721273 132.22828121 24.36835575 121.08148766 C23.95174268 119.808002 23.5386045 118.53337055 23.1300745 117.25726891 C22.68728153 115.87474937 22.68728153 115.87474937 22.23554325 114.46430016 C21.50495321 112.06937132 20.81492003 109.66564235 20.1300745 107.25726891 C17.84926326 99.56453275 15.34811847 91.99548281 12.6144495 84.45258141 C9.6042949 76.03840273 6.86357263 67.52748574 4.05390263 59.04486656 C2.83406164 55.36406731 1.60743658 51.68556698 0.3800745 48.00726891 C-0.00793331 46.84195641 -0.39594112 45.67664391 -0.79570675 44.47601891 C-1.47744124 42.43329446 -2.16200289 40.39150963 -2.85039425 38.35101891 C-3.49117056 36.44699787 -4.12523567 34.54070575 -4.752738 32.63226891 C-5.37315111 30.75801392 -5.99831587 28.88524522 -6.64238644 27.01898766 C-7.50428046 24.51999319 -8.34410551 22.01425867 -9.1824255 19.50726891 C-9.46142696 18.71481773 -9.74042843 17.92236656 -10.02788448 17.10590172 C-11.80277886 11.71293172 -12.21172031 7.82050951 -10.8699255 2.25726891 C-7.15040453 -0.22241174 -4.30384115 -0.02319696 0 0 Z M86.1300745 53.25726891 C83.14539919 57.73428188 83.66083547 62.01102274 84.1300745 67.25726891 C85.17580519 70.39446097 86.00925274 71.56530617 88.794137 73.28461266 C93.50153221 75.4695192 97.18515312 75.44284191 102.1456995 74.06586266 C105.62500875 72.64811263 107.48101347 70.55539097 109.1300745 67.25726891 C109.62440764 62.22479546 109.94857367 57.7683443 107.5050745 53.25726891 C104.15313966 50.43458694 101.06359101 48.66432501 96.7550745 47.75726891 C92.66552431 48.53623085 89.38571386 50.70594005 86.1300745 53.25726891 Z M145.1300745 52.25726891 C143.9544495 53.03070641 143.9544495 53.03070641 142.7550745 53.81976891 C139.99683971 57.95712109 140.43802661 62.45574077 141.1300745 67.25726891 C143.08235713 71.00565155 144.77057849 72.0537806 148.4425745 74.13226891 C153.56612437 75.69538581 157.0069719 75.17406321 161.8800745 73.06976891 C165.7629071 69.94193154 166.94701495 66.69559394 167.5675745 61.81976891 C167.0387404 57.51354834 166.01804778 54.52523867 163.1300745 51.25726891 C155.76404078 47.10550444 151.79110974 47.15519936 145.1300745 52.25726891 Z M200.75898075 52.95648766 C198.38311613 57.14096894 197.56109536 60.62949363 198.54023075 65.36664391 C199.60079073 68.76605469 200.61959736 70.68556061 203.1300745 73.25726891 C207.74298951 75.14583167 212.27218426 75.98249166 217.0050745 74.13226891 C221.4657176 71.45588304 223.66949381 70.03379442 225.0050745 64.88226891 C225.19007639 59.51721411 224.27385518 56.58164654 220.7550745 52.50726891 C217.72803502 49.91266364 215.76986513 48.47886223 211.8175745 47.94476891 C207.43199652 48.45471983 203.63644629 49.39039788 200.75898075 52.95648766 Z " fill="#010101" transform="translate(92.8699254989624,198.74273109436035)"/>
<path d="M0 0 C1.76424946 0.00050323 1.76424946 0.00050323 3.56414032 0.00101662 C4.22233654 -0.0069322 4.88053277 -0.01488101 5.55867434 -0.02307069 C7.75730674 -0.04227296 9.95335012 -0.01871829 12.15190887 0.00483131 C13.73073027 -0.00002629 15.30954552 -0.00746667 16.88834381 -0.01729393 C21.17163364 -0.03609638 25.45400819 -0.01727614 29.73722649 0.00937033 C34.220548 0.03201395 38.70382493 0.0237832 43.18718719 0.01987648 C50.7161071 0.01811097 58.2446667 0.0402629 65.77349091 0.07709694 C74.47654273 0.11943212 83.17906678 0.12645193 91.88220072 0.11397302 C100.25598268 0.10258128 108.62957887 0.11388213 117.00333405 0.13632011 C120.56624539 0.14560633 124.12904303 0.14736234 127.6919632 0.14314842 C131.88807076 0.13937937 136.08364165 0.15561409 140.27962685 0.18726921 C141.81911308 0.19574983 143.35865379 0.19745932 144.89815331 0.19188881 C147.00086358 0.18543498 149.1019753 0.2036267 151.20452118 0.2280674 C152.96877064 0.23422601 152.96877064 0.23422601 154.7686615 0.24050903 C158.54428932 0.85726585 160.17525817 2.09698016 162.88433075 4.74946022 C164.6147995 7.58930397 164.6147995 7.58930397 166.07183075 10.68696022 C166.80466278 12.21643288 166.80466278 12.21643288 167.5522995 13.77680397 C168.36423844 15.58878501 169.14005019 17.41826491 169.8491745 19.27289772 C171.0659524 22.18398146 172.61370871 24.74575737 174.25933075 27.43696022 C176.95587265 31.98319615 179.07783907 36.42475539 180.9116745 41.37055397 C182.24144632 44.62288747 183.99249942 47.5596162 185.8335495 50.54633522 C186.88433075 52.74946022 186.88433075 52.74946022 187.88433075 58.74946022 C123.20433075 58.74946022 58.52433075 58.74946022 -8.11566925 58.74946022 C-8.11566925 1.95218772 -8.11566925 1.95218772 0 0 Z " fill="#060606" transform="translate(143.11566925048828,133.2505397796631)"/>
<path d="M0 0 C6.29881934 -0.02541101 12.59762539 -0.04289254 18.89648438 -0.05493164 C21.03809096 -0.05995204 23.17969414 -0.06676969 25.32128906 -0.07543945 C28.40430546 -0.08760549 31.48727643 -0.09325133 34.5703125 -0.09765625 C35.52366486 -0.10281754 36.47701721 -0.10797882 37.45925903 -0.11329651 C42.09092165 -0.11368501 46.44357251 0.04162479 51 1 C51.02526787 8.10244999 51.04283201 15.20488848 51.05493164 22.30737305 C51.05997349 24.72567172 51.06680678 27.14396733 51.07543945 29.56225586 C51.08751157 33.02979283 51.09322963 36.49728966 51.09765625 39.96484375 C51.10281754 41.05337143 51.10797882 42.14189911 51.11329651 43.26341248 C51.11337204 44.26437454 51.11344757 45.26533661 51.11352539 46.29663086 C51.115746 47.18265488 51.11796661 48.06867889 51.12025452 48.98155212 C51 51 51 51 50 52 C48.43452952 52.09326716 46.86487228 52.11745582 45.29663086 52.11352539 C44.29566879 52.11344986 43.29470673 52.11337433 42.26341248 52.11329651 C41.1748848 52.10813522 40.08635712 52.10297394 38.96484375 52.09765625 C37.85645645 52.0962413 36.74806915 52.09482635 35.60609436 52.09336853 C32.04986931 52.08775033 28.49370617 52.07519475 24.9375 52.0625 C22.53320403 52.05748734 20.12890708 52.05292403 17.72460938 52.04882812 C11.81638496 52.03777499 5.9081969 52.02101917 0 52 C-0.58819731 43.89453391 -1.16996311 35.81832819 -1.125 27.6875 C-1.12886719 26.99978516 -1.13273438 26.31207031 -1.13671875 25.60351562 C-1.12166148 17.05851656 -0.5081435 8.5267405 0 0 Z " fill="#070707" transform="translate(172,76)"/>
<path d="M0 0 C7.10244999 -0.02526787 14.20488848 -0.04283201 21.30737305 -0.05493164 C23.72567172 -0.05997349 26.14396733 -0.06680678 28.56225586 -0.07543945 C32.02979283 -0.08751157 35.49728966 -0.09322963 38.96484375 -0.09765625 C40.05337143 -0.10281754 41.14189911 -0.10797882 42.26341248 -0.11329651 C43.76485558 -0.11340981 43.76485558 -0.11340981 45.29663086 -0.11352539 C46.62566689 -0.11685631 46.62566689 -0.11685631 47.98155212 -0.12025452 C50 0 50 0 51 1 C51.08775605 3.14558827 51.10695219 5.29404421 51.09765625 7.44140625 C51.09443359 8.74658203 51.09121094 10.05175781 51.08789062 11.39648438 C51.07953401 12.7851569 51.07106905 14.17382877 51.0625 15.5625 C51.05748666 16.95507656 51.05292347 18.34765481 51.04882812 19.74023438 C51.03699434 23.1601987 51.0205088 26.58007844 51 30 C39.30725654 30.85223296 27.65727316 31.11069649 15.9375 31.125 C14.84369019 31.12874634 14.84369019 31.12874634 13.7277832 31.13256836 C11.64008788 31.13843729 9.55254058 31.1369787 7.46484375 31.1328125 C6.244021 31.13168457 5.02319824 31.13055664 3.76538086 31.12939453 C1 31 1 31 0 30 C-0.08783542 27.78144736 -0.10694609 25.56011504 -0.09765625 23.33984375 C-0.0962413 22.67537735 -0.09482635 22.01091095 -0.09336853 21.3263092 C-0.08775518 19.19666101 -0.07520054 17.06711661 -0.0625 14.9375 C-0.05748671 13.49674631 -0.05292351 12.05599097 -0.04882812 10.61523438 C-0.03778145 7.07678898 -0.02050792 3.53840461 0 0 Z " fill="#0E0E0E" transform="translate(172,33)"/>
<path d="M0 0 C0.99 0.33 1.98 0.66 3 1 C4.1577506 4.47325181 4.06866652 7.36067448 4 11 C1.55160412 7.32740617 0 4.45351799 0 0 Z " fill="#616161" transform="translate(105,280)"/>
<path d="M0 0 C0.33 0 0.66 0 1 0 C1.33 3.3 1.66 6.6 2 10 C0.68 10.33 -0.64 10.66 -2 11 C-1.34 7.37 -0.68 3.74 0 0 Z " fill="#424242" transform="translate(260,257)"/>
</svg>
