<?xml version="1.0" encoding="UTF-8"?>
<svg version="1.1" xmlns="http://www.w3.org/2000/svg" width="200" height="100">
<path d="M0 0 C3.62666955 1.20888985 3.80287066 1.96453165 5.5 5.25 C6.76682108 7.66995309 7.9605769 9.94529027 9.55957031 12.16430664 C11.38281654 15.75362951 11.39660333 18.8639824 11.328125 22.79296875 C11.32625183 23.53903885 11.32437866 24.28510895 11.32244873 25.05378723 C11.31574498 26.62973511 11.30186379 28.20566682 11.28125 29.78149414 C11.25032556 32.16243437 11.24029389 34.54270757 11.234375 36.92382812 C11.19413666 44.67732981 10.96018159 52.29531709 10 60 C4.06 60 -1.88 60 -8 60 C-10.2619947 55.4760106 -9.41321812 49.33711957 -9.55761719 44.29931641 C-9.62393224 42.03643521 -9.70205639 39.77418107 -9.78125 37.51171875 C-10.48011086 15.8401423 -10.48011086 15.8401423 -6.125 10.25 C-3.66356219 6.91877527 -1.73372331 3.75640049 0 0 Z " fill="#050505" transform="translate(100,20)"/>
<path d="M0 0 C0.33 0 0.66 0 1 0 C1 15.18 1 30.36 1 46 C6.28 46 11.56 46 17 46 C17 30.82 17 15.64 17 0 C19.48309713 2.48309713 19.23664409 3.91802781 19.25224304 7.30639648 C19.24505753 8.03028564 19.23787201 8.7541748 19.23046875 9.5 C19.22978142 10.62547241 19.22978142 10.62547241 19.2290802 11.77368164 C19.22605467 13.36752902 19.21815939 14.96137337 19.20581055 16.55517578 C19.18777954 18.96267525 19.18529944 21.36978441 19.18554688 23.77734375 C19.16698077 31.58362821 18.97747763 39.2427375 18 47 C12.06 47 6.12 47 0 47 C-2.2619947 42.4760106 -1.41321812 36.33711957 -1.55761719 31.29931641 C-1.62393224 29.03643521 -1.70205639 26.77418107 -1.78125 24.51171875 C-2.41187035 4.82374069 -2.41187035 4.82374069 0 0 Z " fill="#797979" transform="translate(92,33)"/>
</svg>
